<svg width="399" height="399" viewBox="0 0 399 399" fill="none" xmlns="http://www.w3.org/2000/svg">
<g transform="translate(95 -45)">
<path d="M18.0706 399C12.8328 399 8.51153 397.297 5.10692 393.89C1.70231 390.483 0 386.159 0 380.917V198.91C0.261894 178.469 5.10692 159.993 14.5351 143.483C24.2251 126.972 37.1888 114 53.4262 104.566C69.6636 95.1311 87.9961 90.4138 108.424 90.4138C129.113 90.4138 147.577 95.2621 163.814 104.959C180.313 114.393 193.277 127.366 202.705 143.876C212.395 160.124 217.24 178.731 217.24 199.697C217.24 220.4 212.657 239.007 203.491 255.517C194.587 272.028 182.409 285 166.957 294.435C151.505 303.869 134.089 308.586 114.709 308.586C98.2099 308.586 83.282 305.179 69.9255 298.366C65.3253 296.019 60.9736 293.392 56.8705 290.486C49.1441 285.013 36.1412 290.03 36.1412 299.498V380.917C36.1412 386.159 34.4389 390.483 31.0343 393.89C27.8916 397.297 23.5704 399 18.0706 399ZM108.424 276.352C122.304 276.352 134.744 273.076 145.743 266.524C157.005 259.71 165.778 250.538 172.064 239.007C178.611 227.214 181.885 214.11 181.885 199.697C181.885 185.021 178.611 171.917 172.064 160.386C165.778 148.593 157.005 139.421 145.743 132.869C134.744 126.055 122.304 122.648 108.424 122.648C94.5434 122.648 81.9725 126.055 70.7111 132.869C59.7116 139.683 51.0692 148.855 44.7837 160.386C38.4983 171.917 35.3556 185.021 35.3556 199.697C35.3556 214.11 38.4983 227.214 44.7837 239.007C51.0692 250.538 59.7116 259.71 70.7111 266.524C81.9725 273.076 94.5434 276.352 108.424 276.352Z" fill="black"/>
</g>
</svg>
