<svg width="1321" height="399" viewBox="0 0 1321 399" fill="none" xmlns="http://www.w3.org/2000/svg">
<path d="M18.0706 399C12.8328 399 8.51153 397.297 5.10692 393.89C1.70231 390.483 0 386.159 0 380.917V198.91C0.261894 178.469 5.10692 159.993 14.5351 143.483C24.2251 126.972 37.1888 114 53.4262 104.566C69.6636 95.1311 87.9961 90.4138 108.424 90.4138C129.113 90.4138 147.577 95.2621 163.814 104.959C180.313 114.393 193.277 127.366 202.705 143.876C212.395 160.124 217.24 178.731 217.24 199.697C217.24 220.4 212.657 239.007 203.491 255.517C194.587 272.028 182.409 285 166.957 294.435C151.505 303.869 134.089 308.586 114.709 308.586C98.2099 308.586 83.282 305.179 69.9255 298.366C65.3253 296.019 60.9736 293.392 56.8705 290.486C49.1441 285.013 36.1412 290.03 36.1412 299.498V380.917C36.1412 386.159 34.4389 390.483 31.0343 393.89C27.8916 397.297 23.5704 399 18.0706 399ZM108.424 276.352C122.304 276.352 134.744 273.076 145.743 266.524C157.005 259.71 165.778 250.538 172.064 239.007C178.611 227.214 181.885 214.11 181.885 199.697C181.885 185.021 178.611 171.917 172.064 160.386C165.778 148.593 157.005 139.421 145.743 132.869C134.744 126.055 122.304 122.648 108.424 122.648C94.5434 122.648 81.9725 126.055 70.7111 132.869C59.7116 139.683 51.0692 148.855 44.7837 160.386C38.4983 171.917 35.3556 185.021 35.3556 199.697C35.3556 214.11 38.4983 227.214 44.7837 239.007C51.0692 250.538 59.7116 259.71 70.7111 266.524C81.9725 273.076 94.5434 276.352 108.424 276.352Z" fill="black"/>
<path d="M280.518 307.014C275.018 307.014 270.566 305.31 267.162 301.903C263.757 298.497 262.055 294.172 262.055 288.931V110.069C262.055 104.566 263.757 100.241 267.162 97.0966C270.566 93.6897 275.018 91.9862 280.518 91.9862C285.756 91.9862 290.077 93.6897 293.482 97.0966C296.887 100.241 298.589 104.566 298.589 110.069V288.931C298.589 294.172 296.887 298.497 293.482 301.903C290.077 305.31 285.756 307.014 280.518 307.014Z" fill="black"/>
<path d="M450.961 308.586C430.272 308.586 411.808 303.869 395.571 294.435C379.334 284.738 366.501 271.766 357.073 255.517C347.907 239.007 343.323 220.4 343.323 199.697C343.323 178.469 347.776 159.6 356.68 143.09C365.846 126.579 378.286 113.738 394 104.566C409.713 95.1311 427.915 90.4138 448.604 90.4138C464.056 90.4138 478.329 93.4276 491.424 99.4552C504.519 105.483 516.173 114.524 526.387 126.579C529.791 130.248 530.97 134.179 529.922 138.372C529.137 142.566 526.518 146.234 522.065 149.379C518.923 151.738 515.256 152.524 511.066 151.738C506.876 150.952 503.209 148.724 500.066 145.055C486.186 130.117 469.032 122.648 448.604 122.648C434.724 122.648 422.415 125.924 411.678 132.476C401.202 139.028 392.952 148.069 386.929 159.6C381.167 170.869 378.286 184.235 378.286 199.697C378.286 214.372 381.298 227.476 387.321 239.007C393.607 250.538 402.249 259.71 413.249 266.524C424.248 273.076 436.819 276.352 450.961 276.352C460.652 276.352 469.294 275.172 476.889 272.814C484.484 270.455 491.293 266.655 497.317 261.414C500.983 258.269 504.78 256.566 508.709 256.303C512.899 256.041 516.566 257.221 519.708 259.841C523.637 263.248 525.863 267.048 526.387 271.241C526.91 275.435 525.47 279.103 522.065 282.248C503.209 299.807 479.508 308.586 450.961 308.586Z" fill="black"/>
<path d="M666.486 308.586C645.797 308.586 627.333 303.869 611.096 294.435C594.858 284.738 582.026 271.766 572.598 255.517C563.431 239.007 558.848 220.4 558.848 199.697C558.848 178.469 563.3 159.6 572.205 143.09C581.371 126.579 593.811 113.738 609.524 104.566C625.238 95.1311 643.44 90.4138 664.129 90.4138C679.581 90.4138 693.854 93.4276 706.949 99.4552C720.043 105.483 731.698 114.524 741.911 126.579C745.316 130.248 746.494 134.179 745.447 138.372C744.661 142.566 742.042 146.234 737.59 149.379C734.447 151.738 730.781 152.524 726.591 151.738C722.4 150.952 718.734 148.724 715.591 145.055C701.711 130.117 684.557 122.648 664.129 122.648C650.249 122.648 637.94 125.924 627.202 132.476C616.727 139.028 608.477 148.069 602.453 159.6C596.692 170.869 593.811 184.235 593.811 199.697C593.811 214.372 596.823 227.476 602.846 239.007C609.132 250.538 617.774 259.71 628.774 266.524C639.773 273.076 652.344 276.352 666.486 276.352C676.176 276.352 684.819 275.172 692.414 272.814C700.008 270.455 706.818 266.655 712.841 261.414C716.508 258.269 720.305 256.566 724.234 256.303C728.424 256.041 732.09 257.221 735.233 259.841C739.161 263.248 741.388 267.048 741.911 271.241C742.435 275.435 740.995 279.103 737.59 282.248C718.734 299.807 695.033 308.586 666.486 308.586Z" fill="black"/>
<path d="M882.797 308.586C861.845 308.586 843.12 304 826.62 294.828C810.383 285.393 797.55 272.552 788.122 256.303C778.956 239.793 774.373 220.924 774.373 199.697C774.373 178.207 778.956 159.338 788.122 143.09C797.55 126.579 810.383 113.738 826.62 104.566C843.12 95.1311 861.845 90.4138 882.797 90.4138C903.748 90.4138 922.342 95.1311 938.58 104.566C955.079 113.738 967.912 126.579 977.078 143.09C986.506 159.338 991.351 178.207 991.613 199.697C991.613 220.924 986.899 239.793 977.471 256.303C968.043 272.552 955.21 285.393 938.973 294.828C922.735 304 904.01 308.586 882.797 308.586ZM882.797 276.352C897.201 276.352 909.903 273.076 920.902 266.524C931.902 259.972 940.544 250.931 946.829 239.4C953.115 227.869 956.258 214.635 956.258 199.697C956.258 184.759 953.115 171.524 946.829 159.993C940.544 148.2 931.902 139.028 920.902 132.476C909.903 125.924 897.201 122.648 882.797 122.648C868.654 122.648 855.953 125.924 844.691 132.476C833.692 139.028 825.049 148.2 818.764 159.993C812.478 171.524 809.336 184.759 809.336 199.697C809.336 214.635 812.478 227.869 818.764 239.4C825.049 250.931 833.692 259.972 844.691 266.524C855.953 273.076 868.654 276.352 882.797 276.352Z" fill="black"/>
<path d="M1080.31 307.014C1069.31 307.014 1059.49 304 1050.85 297.972C1042.2 291.945 1035.39 283.69 1030.42 273.207C1025.7 262.462 1023.35 250.145 1023.35 236.255V17.6896C1023.35 12.4483 1024.92 8.25518 1028.06 5.11036C1031.47 1.70346 1035.79 9.21611e-06 1041.03 9.21611e-06C1046.52 9.21611e-06 1050.85 1.70346 1053.99 5.11036C1057.39 8.25518 1059.1 12.4483 1059.1 17.6896V236.255C1059.1 246.476 1061.06 254.862 1064.99 261.414C1069.18 267.966 1074.29 271.241 1080.31 271.241H1090.13C1095.11 271.241 1099.03 272.945 1101.92 276.352C1104.8 279.497 1106.24 283.821 1106.24 289.324C1106.24 294.566 1104.01 298.89 1099.56 302.297C1095.37 305.441 1089.87 307.014 1083.06 307.014H1080.31Z" fill="black"/>
<path d="M1212.18 308.586C1191.23 308.586 1172.51 304 1156.01 294.828C1139.77 285.393 1126.94 272.552 1117.51 256.303C1108.34 239.793 1103.76 220.924 1103.76 199.697C1103.76 178.207 1108.34 159.338 1117.51 143.09C1126.94 126.579 1139.77 113.738 1156.01 104.566C1172.51 95.1311 1191.23 90.4138 1212.18 90.4138C1233.13 90.4138 1251.73 95.1311 1267.97 104.566C1284.47 113.738 1297.3 126.579 1306.46 143.09C1315.89 159.338 1320.74 178.207 1321 199.697C1321 220.924 1316.29 239.793 1306.86 256.303C1297.43 272.552 1284.6 285.393 1268.36 294.828C1252.12 304 1233.4 308.586 1212.18 308.586ZM1212.18 276.352C1226.59 276.352 1239.29 273.076 1250.29 266.524C1261.29 259.972 1269.93 250.931 1276.22 239.4C1282.5 227.869 1285.64 214.635 1285.64 199.697C1285.64 184.759 1282.5 171.524 1276.22 159.993C1269.93 148.2 1261.29 139.028 1250.29 132.476C1239.29 125.924 1226.59 122.648 1212.18 122.648C1198.04 122.648 1185.34 125.924 1174.08 132.476C1163.08 139.028 1154.44 148.2 1148.15 159.993C1141.87 171.524 1138.72 184.759 1138.72 199.697C1138.72 214.635 1141.87 227.869 1148.15 239.4C1154.44 250.931 1163.08 259.972 1174.08 266.524C1185.34 273.076 1198.04 276.352 1212.18 276.352Z" fill="black"/>
<path d="M262.055 16.3793C262.068 7.59873 269.013 0.398163 277.782 0.0731791L279.757 0L282.442 0.202542C290.895 0.840283 297.424 7.89657 297.41 16.3793L297.435 46.5172C297.435 54.8525 290.682 61.6096 282.352 61.6096H280.387H279.125C269.711 61.6096 262.079 53.9725 262.079 44.5517L262.055 16.3793Z" fill="black"/>
</svg>
